<svg width="900" height="1125" viewBox="0 0 900 1125" fill="none" xmlns="http://www.w3.org/2000/svg">
  <rect width="900" height="1125" rx="44" fill="#07111F"/>
  <path d="M0 0H900V1125H0V0Z" fill="url(#bg)"/>
  <g opacity="0.35">
    <path d="M90 190H810M90 310H810M90 430H810M90 550H810M90 670H810M90 790H810M90 910H810" stroke="white" stroke-opacity="0.16"/>
    <path d="M150 120V1005M270 120V1005M390 120V1005M510 120V1005M630 120V1005M750 120V1005" stroke="white" stroke-opacity="0.13"/>
  </g>
  <circle cx="202" cy="218" r="128" fill="#5EEAD4" fill-opacity="0.18"/>
  <circle cx="724" cy="188" r="156" fill="#A855F7" fill-opacity="0.18"/>
  <circle cx="459" cy="756" r="310" fill="#60A5FA" fill-opacity="0.1"/>
  <path d="M233 878C255 697 337 604 452 604C568 604 649 700 669 878H233Z" fill="#111B32"/>
  <path d="M282 900C303 757 363 690 452 690C542 690 602 759 621 900H282Z" fill="#17264A"/>
  <path d="M346 633C362 691 397 726 451 726C505 726 541 691 556 633L527 618C511 653 487 671 451 671C416 671 392 653 375 618L346 633Z" fill="#F0C7A8"/>
  <path d="M319 374C321 285 374 226 454 226C535 226 588 286 590 374L597 455C602 520 558 591 454 591C349 591 305 520 312 455L319 374Z" fill="#F2C9AB"/>
  <path d="M324 393C315 298 363 220 455 220C548 220 598 300 584 398C553 374 507 359 455 359C402 359 356 374 324 393Z" fill="#141827"/>
  <path d="M315 418C336 346 384 309 456 309C527 309 574 347 593 418C595 307 540 209 455 209C371 209 312 306 315 418Z" fill="#101322"/>
  <path d="M382 450C398 441 414 441 430 450" stroke="#1F2937" stroke-width="10" stroke-linecap="round"/>
  <path d="M481 450C497 441 514 441 530 450" stroke="#1F2937" stroke-width="10" stroke-linecap="round"/>
  <path d="M437 523C452 533 469 533 485 523" stroke="#9A5F55" stroke-width="8" stroke-linecap="round"/>
  <path d="M314 394C270 414 270 494 326 508" stroke="#F0C7A8" stroke-width="28" stroke-linecap="round"/>
  <path d="M589 394C633 414 633 494 577 508" stroke="#F0C7A8" stroke-width="28" stroke-linecap="round"/>
  <path d="M231 878H672V1036H231V878Z" fill="#0E172A"/>
  <path d="M231 878C296 921 370 943 452 943C534 943 608 921 672 878V1036H231V878Z" fill="url(#jacket)"/>
  <path d="M365 710L452 796L539 710L578 790L452 963L326 790L365 710Z" fill="#EEF7FF" fill-opacity="0.95"/>
  <path d="M129 918H771" stroke="url(#line)" stroke-width="5" stroke-linecap="round"/>
  <rect x="103" y="81" width="222" height="58" rx="29" fill="white" fill-opacity="0.12"/>
  <text x="132" y="119" fill="#CCFBF1" font-family="Segoe UI, Arial, sans-serif" font-size="26" font-weight="700">AI + ML</text>
  <rect x="558" y="81" width="240" height="58" rx="29" fill="white" fill-opacity="0.12"/>
  <text x="588" y="119" fill="#E9D5FF" font-family="Segoe UI, Arial, sans-serif" font-size="26" font-weight="700">Problem Solver</text>
  <defs>
    <linearGradient id="bg" x1="0" y1="0" x2="900" y2="1125" gradientUnits="userSpaceOnUse">
      <stop stop-color="#0B1728"/>
      <stop offset="0.5" stop-color="#11152A"/>
      <stop offset="1" stop-color="#05231F"/>
    </linearGradient>
    <linearGradient id="jacket" x1="231" y1="878" x2="672" y2="1036" gradientUnits="userSpaceOnUse">
      <stop stop-color="#12203B"/>
      <stop offset="1" stop-color="#31204B"/>
    </linearGradient>
    <linearGradient id="line" x1="129" y1="918" x2="771" y2="918" gradientUnits="userSpaceOnUse">
      <stop stop-color="#5EEAD4"/>
      <stop offset="0.5" stop-color="#60A5FA"/>
      <stop offset="1" stop-color="#C084FC"/>
    </linearGradient>
  </defs>
</svg>
