<svg width="1200" height="630" viewBox="0 0 1200 630" fill="none" xmlns="http://www.w3.org/2000/svg">
  <rect width="1200" height="630" fill="#07111F"/>
  <path d="M0 0H1200V630H0V0Z" fill="url(#bg)"/>
  <circle cx="161" cy="145" r="190" fill="#5EEAD4" fill-opacity="0.18"/>
  <circle cx="1030" cy="112" r="220" fill="#A855F7" fill-opacity="0.18"/>
  <circle cx="752" cy="557" r="260" fill="#60A5FA" fill-opacity="0.1"/>
  <g opacity="0.24">
    <path d="M80 120H1120M80 240H1120M80 360H1120M80 480H1120" stroke="white"/>
    <path d="M160 70V560M320 70V560M480 70V560M640 70V560M800 70V560M960 70V560" stroke="white"/>
  </g>
  <rect x="72" y="84" width="1056" height="462" rx="42" fill="white" fill-opacity="0.09" stroke="white" stroke-opacity="0.16"/>
  <text x="130" y="241" fill="white" font-family="Segoe UI, Arial, sans-serif" font-size="82" font-weight="800">Thanisha M</text>
  <text x="134" y="305" fill="#CCFBF1" font-family="Segoe UI, Arial, sans-serif" font-size="32" font-weight="700">AI &amp; ML Engineer | Innovator | Problem Solver</text>
  <text x="134" y="378" fill="#CBD5E1" font-family="Segoe UI, Arial, sans-serif" font-size="27">REVA University | Practical AI applications | Creative technology</text>
  <rect x="134" y="421" width="274" height="58" rx="29" fill="url(#pill)"/>
  <text x="165" y="459" fill="#07111F" font-family="Segoe UI, Arial, sans-serif" font-size="24" font-weight="800">Portfolio 2026</text>
  <defs>
    <linearGradient id="bg" x1="0" y1="0" x2="1200" y2="630" gradientUnits="userSpaceOnUse">
      <stop stop-color="#07111F"/>
      <stop offset="0.52" stop-color="#10162A"/>
      <stop offset="1" stop-color="#041C1A"/>
    </linearGradient>
    <linearGradient id="pill" x1="134" y1="421" x2="408" y2="479" gradientUnits="userSpaceOnUse">
      <stop stop-color="#5EEAD4"/>
      <stop offset="0.5" stop-color="#60A5FA"/>
      <stop offset="1" stop-color="#C084FC"/>
    </linearGradient>
  </defs>
</svg>
